<svg width="32" height="24" viewBox="0 0 32 24" fill="none" xmlns="http://www.w3.org/2000/svg">
<g id="Clip path group">
<mask id="mask0_42_2272" style="mask-type:luminance" maskUnits="userSpaceOnUse" x="0" y="0" width="32" height="24">
<g id="a">
<path id="Vector" d="M0.00146484 0H31.9983V24H0.00146484V0Z" fill="white"/>
</g>
</mask>
<g mask="url(#mask0_42_2272)">
<g id="Group">
<path id="Vector_2" fill-rule="evenodd" clip-rule="evenodd" d="M-2 -0.00012207H34V23.9999H-2V-0.00012207Z" fill="#165D31"/>
<path id="Vector_3" fill-rule="evenodd" clip-rule="evenodd" d="M7.07015 6.80143C7.03265 7.36393 6.9764 8.34831 7.45921 8.45143C8.03577 8.50768 7.71702 7.47643 7.92796 7.28893C7.96546 7.19518 8.03577 7.19518 8.04046 7.31237V8.18893C8.04046 8.47018 8.22796 8.55456 8.36859 8.61081C8.51859 8.60143 8.62171 8.61081 8.67796 8.75143L8.75296 10.2655C8.75296 10.2655 9.09984 10.3686 9.11859 9.41706C9.13265 8.85456 9.00609 8.39049 9.08109 8.28268C9.08109 8.17487 9.22171 8.17018 9.31546 8.22174C9.46546 8.32487 9.53109 8.45612 9.76546 8.40924C10.1217 8.30612 10.3373 8.13268 10.342 7.86081C10.335 7.59363 10.2794 7.32996 10.178 7.08268C10.1967 7.03581 10.1123 6.90924 10.1311 6.86237C10.192 6.96549 10.2905 6.95612 10.3092 6.86237C10.2483 6.66549 10.1545 6.47331 10.0045 6.39362C9.87796 6.28112 9.69046 6.29987 9.62952 6.53424C9.59202 6.80143 9.72327 7.11549 9.91546 7.37799C9.95765 7.47643 10.0139 7.64518 9.99046 7.79518C9.88734 7.85612 9.78421 7.82799 9.69515 7.73893C9.69515 7.73893 9.4139 7.52799 9.4139 7.47643C9.4889 6.99831 9.42796 6.94206 9.38577 6.80612C9.35765 6.62331 9.26859 6.56237 9.19827 6.44049C9.12796 6.36549 9.03421 6.36549 8.98734 6.44049C8.86077 6.65612 8.92171 7.12018 9.01077 7.33112C9.0764 7.52331 9.17484 7.64518 9.12796 7.64518C9.09046 7.75299 9.01077 7.72487 8.94984 7.59831C8.88124 7.33195 8.84814 7.05771 8.8514 6.78268C8.82796 6.56706 8.79984 6.10768 8.65452 5.98581C8.57015 5.87331 8.44359 5.92956 8.39671 6.03268C8.38433 6.24209 8.38904 6.45216 8.41077 6.66081C8.50452 7.00768 8.53734 7.31706 8.58421 7.66862C8.59827 8.14206 8.31234 7.87487 8.3264 7.63581C8.38789 7.33526 8.38309 7.02493 8.31234 6.72643C8.26546 6.60456 8.2139 6.57643 8.09671 6.59518C8.00765 6.59518 7.77796 6.84362 7.71234 7.26549C7.71234 7.26549 7.65609 7.48112 7.63265 7.67331C7.59984 7.88893 7.45921 8.04831 7.35609 7.64518C7.27171 7.34987 7.21546 6.63268 7.07484 6.80143H7.07015Z" fill="white"/>
<path id="Vector_4" fill-rule="evenodd" clip-rule="evenodd" d="M8.64062 9.10283L7.14062 9.82471C7.15469 9.48252 7.84844 8.86846 8.32656 8.86377C8.63125 8.86846 8.55625 8.98096 8.63594 9.10283H8.64062Z" fill="white"/>
<path id="Vector_5" fill-rule="evenodd" clip-rule="evenodd" d="M8.3737 9.57153C7.5862 11.6106 10.2253 11.8965 10.5206 9.65591C10.5487 9.56216 10.6612 9.4731 10.68 9.6231C10.619 11.6528 8.6362 11.7887 8.2987 11.1512C8.2193 10.9319 8.17962 10.7001 8.18151 10.4668C8.13464 10.0684 7.9237 10.2231 7.89089 10.6168C7.85808 10.8372 7.86745 10.8981 7.86745 11.109C7.97058 12.7122 10.5253 12.0231 10.9425 10.7012C11.1628 9.96997 10.905 9.43091 11.0221 9.43091C11.2753 9.70278 11.6315 9.46841 11.7112 9.37466C11.744 9.32779 11.8284 9.29497 11.8846 9.35591C12.0815 9.49654 12.4284 9.43091 12.5034 9.18247C12.5456 8.93403 12.5784 8.68091 12.5878 8.4231C12.4237 8.46997 12.3065 8.50278 12.2924 8.5731L12.2596 8.78872C12.2456 8.85904 12.1096 8.85904 12.1003 8.76997C12.0393 8.48872 11.7862 8.45591 11.6315 8.88716C11.5331 8.97154 11.3456 8.99029 11.3268 8.86372C11.3503 8.5731 11.2331 8.5356 10.9987 8.67154L10.7737 6.97466C10.8675 6.97466 10.9612 7.04497 11.0503 6.93247C10.9565 6.62778 10.7456 6.00903 10.6284 5.96216C10.5768 5.89653 10.53 5.93872 10.455 5.95747C10.3331 5.99497 10.2206 6.0981 10.2581 6.30435C10.3987 7.1856 10.4925 7.85591 10.6378 8.74185C10.6612 8.84028 10.5768 8.97622 10.4643 8.96216C10.2768 8.8356 10.23 8.57778 9.90183 8.58716C9.66745 8.58716 9.40495 8.84497 9.37214 9.08872C9.32995 9.2856 9.31589 9.49653 9.37214 9.66528C9.5362 9.86216 9.73308 9.84341 9.90651 9.80122C10.0471 9.74029 10.1643 9.59966 10.2159 9.63247C10.2487 9.67466 10.2206 10.1434 9.54558 10.4997C9.13776 10.6872 8.80964 10.7247 8.6362 10.3918C8.52839 10.1809 8.64558 9.38872 8.3737 9.57153Z" fill="white"/>
<path id="Vector_6" fill-rule="evenodd" clip-rule="evenodd" d="M11.7343 7.4996C11.889 7.44335 12.639 6.58085 12.639 6.58085L12.5265 6.4871C12.4843 6.45429 12.489 6.41679 12.5265 6.38397C12.714 6.27147 12.653 6.0371 12.5593 5.9246C12.4956 5.89357 12.4256 5.87784 12.3548 5.87865C12.284 5.87947 12.2144 5.89681 12.1515 5.92929C12.0202 6.05585 11.9921 6.25741 12.0952 6.37929C12.1937 6.42616 12.2921 6.52929 12.2265 6.58554C11.9171 6.91366 11.078 7.48085 11.1765 7.4996C11.1952 7.52772 11.7155 7.52772 11.7296 7.4996H11.7343ZM7.18741 10.5465C6.90616 10.9965 6.88272 11.6668 7.03741 11.8683C7.12178 11.9621 7.25772 12.0043 7.35616 11.9715C7.53428 11.8965 7.61397 11.5355 7.57178 11.409C7.51085 11.3152 7.46397 11.3012 7.40303 11.3762C7.28116 11.6293 7.2296 11.4558 7.21553 11.3152C7.2021 11.0771 7.21467 10.8382 7.25303 10.6027C7.28585 10.4058 7.25303 10.4621 7.18741 10.5465ZM19.239 9.82929C18.9671 9.23866 18.5874 8.65741 18.4702 8.4371C18.1049 7.85962 17.7171 7.29669 17.3077 6.7496C17.0171 6.40272 17.7858 6.89491 17.214 6.20116L16.7968 5.8496C16.703 5.78397 16.478 5.6621 16.4405 5.85897C16.4218 6.0371 16.4312 6.13085 16.4593 6.27616C16.4827 6.36991 16.6233 6.53397 16.6937 6.62772C17.6547 7.9006 18.4987 9.25767 19.2155 10.6824C19.3374 10.6215 19.3093 9.92772 19.239 9.82929Z" fill="white"/>
<path id="Vector_7" fill-rule="evenodd" clip-rule="evenodd" d="M18.0437 11.7887C17.9875 11.8497 18.175 12.1075 18.4187 12.1075C18.8219 12.0606 19.1781 11.8356 19.5062 11.2356C19.6396 11.036 19.7246 10.8081 19.7547 10.57C19.7944 9.43205 19.7031 8.29332 19.4828 7.17623C19.4687 7.08248 19.4828 6.96998 19.4922 6.94185C19.5203 6.90904 19.6094 6.94185 19.6562 6.86216C19.7265 6.79185 19.4687 6.20591 19.3281 5.9856C19.2812 5.88248 19.2578 5.81685 19.1734 5.99498C19.0716 6.19152 19.0231 6.41133 19.0328 6.63248C19.225 7.96841 19.2859 9.1356 19.4078 10.4715C19.4219 10.6028 19.4031 10.7903 19.314 10.8653C18.9603 11.2591 18.5275 11.5738 18.0437 11.7887ZM23.5047 11.784C23.214 11.9528 23.214 12.145 23.4484 12.1497C23.8515 12.1028 24.3297 12.07 24.6578 11.5731C24.7737 11.3391 24.8407 11.0839 24.8547 10.8231C24.9137 9.70269 24.8397 8.57923 24.6344 7.47623C24.625 7.38248 24.5828 7.16216 24.5969 7.13404C24.625 7.06841 24.7562 7.13873 24.8031 7.06373C24.8687 6.99341 24.4609 6.46841 24.3156 6.24341C24.2687 6.14029 24.25 6.07466 24.1609 6.25279C24.0665 6.45114 24.037 6.6742 24.0765 6.89029C24.2922 8.34341 24.4515 9.43091 24.4844 10.7153C24.4656 10.8372 24.4609 10.9028 24.4047 11.0575C24.2781 11.2169 24.1375 11.4231 24.0062 11.5215C23.875 11.6153 23.5937 11.709 23.5047 11.784Z" fill="white"/>
<path id="Vector_8" fill-rule="evenodd" clip-rule="evenodd" d="M23.7206 10.4855C23.7206 10.1433 23.7252 9.85267 23.7159 9.59486C23.7128 9.37651 23.665 9.16112 23.5752 8.96204C23.4909 8.76986 23.5424 8.61517 23.5002 8.40892C23.4627 8.20267 23.4721 7.89329 23.4159 7.65423C23.3971 7.56048 23.3502 7.25579 23.3643 7.22298C23.3877 7.15736 23.4768 7.22298 23.5237 7.14798C23.5893 7.07767 23.2893 6.30423 23.1393 6.08392C23.0877 5.98548 22.9846 6.01829 22.8674 6.17767C22.7502 6.28548 22.7924 6.52454 22.8393 6.75423C23.1252 8.26829 23.3456 9.64173 23.2987 11.0808C23.2799 11.2027 23.7206 10.7152 23.7206 10.4855ZM21.5784 8.61048C21.3956 8.60111 21.0159 8.24954 20.9034 8.04798C20.885 7.99872 20.8771 7.94613 20.8803 7.89364C20.8836 7.84115 20.8978 7.78993 20.9221 7.74329C20.9924 7.69642 21.0956 7.64954 21.1752 7.69642C21.1752 7.69642 21.2549 7.80892 21.2409 7.82298C21.3346 7.86986 21.3815 7.84642 21.3909 7.80423C21.3956 7.73392 21.3627 7.69173 21.3627 7.61673C21.4049 7.40111 21.644 7.36829 21.7377 7.50423C21.8034 7.58861 21.8315 7.76204 21.8362 7.87923C21.8362 7.94017 21.7424 7.86986 21.6815 7.87923C21.6299 7.89798 21.6159 7.96361 21.6112 8.01986C21.6018 8.17454 21.5831 8.42298 21.5784 8.60579V8.61048ZM18.2127 10.8605C18.2596 10.4011 18.194 9.58079 18.1893 9.30892C18.1642 8.60971 18.1064 7.91207 18.0159 7.21829C17.9596 6.82454 18.1752 7.26048 18.1471 7.03079C18.0768 6.64173 17.8612 6.37454 17.6034 6.02298C17.5237 5.90579 17.5237 5.88236 17.3971 6.05111C17.2565 6.36517 17.3784 6.58548 17.4159 6.83392C17.5987 7.64017 17.7065 8.38079 17.7581 9.11673C17.812 9.88122 17.8183 10.6483 17.7768 11.4136C17.9174 11.4183 18.1331 11.1933 18.2127 10.8605Z" fill="white"/>
<path id="Vector_9" fill-rule="evenodd" clip-rule="evenodd" d="M24.344 10.125C24.0205 9.58123 23.5377 8.99998 23.4065 8.77967C22.9718 8.17268 22.5153 7.58166 22.0377 7.0078C21.6393 6.58592 22.2252 6.93748 21.9627 6.60936C21.7424 6.3703 21.6815 6.29061 21.4893 6.1453C21.3955 6.08436 21.3393 5.96717 21.3018 6.16873C21.2868 6.34332 21.2837 6.51872 21.2924 6.69373C21.2924 6.77342 21.3768 6.92811 21.4518 7.02186C22.4221 8.21717 23.4861 9.43592 24.3393 10.9687C24.4611 10.9078 24.419 10.2187 24.3393 10.125H24.344Z" fill="white"/>
<path id="Vector_10" fill-rule="evenodd" clip-rule="evenodd" d="M9.7468 9.12644C9.72336 9.16863 9.6718 9.22019 9.69055 9.27175C9.72336 9.31863 9.75617 9.33269 9.81242 9.33269C9.86398 9.33269 9.93898 9.34675 9.95305 9.31863C9.98117 9.28582 9.99992 9.22488 9.98117 9.16394C9.92492 9.02332 9.77492 9.07957 9.7468 9.12644Z" fill="#165D31"/>
<path id="Vector_11" fill-rule="evenodd" clip-rule="evenodd" d="M20.6029 16.992C21.0342 17.0107 21.3154 17.0154 21.6951 17.0576L22.1451 17.0107C22.642 16.9639 22.6607 17.7185 22.6607 17.7185C22.6607 18.1639 22.4873 18.1873 22.267 18.2342C22.1404 18.2529 22.0795 18.1592 22.0092 18.0654C21.9032 18.0994 21.7903 18.1059 21.6811 18.0842C21.4982 18.0748 21.3201 18.0748 21.142 18.0607C20.9545 18.0467 20.8514 18.0842 20.6592 18.0654C20.6217 18.1264 20.5654 18.2107 20.4529 18.1873C20.3592 18.1732 20.242 17.906 20.2748 17.6951C20.3451 17.5451 20.3217 17.5967 20.3217 17.531C18.5592 17.4842 16.7826 17.4045 15.0576 17.4279C13.7076 17.4326 12.3764 17.4889 11.0404 17.5451C10.3279 17.5357 9.78418 17.4232 9.40918 16.8748C9.44668 16.8748 11.2279 16.9732 11.7482 16.9404C12.7092 16.931 13.5904 16.8514 14.5701 16.8232C16.5014 16.856 18.4186 16.856 20.3498 16.992C20.1623 16.8654 20.1623 16.5701 20.4436 16.4951C20.467 16.4764 20.4811 16.6404 20.5232 16.6357C20.7529 16.6217 20.6498 16.931 20.6029 16.992ZM12.8404 6.34199C12.5498 7.17636 13.0092 8.09511 13.3279 8.00605C13.5623 8.0998 13.7029 7.65917 13.7967 7.18105C13.867 7.04511 13.9139 7.03105 13.9467 7.10136C13.9373 7.73886 13.9936 7.88417 14.1576 8.07636C14.5232 8.35761 14.8279 8.11386 14.8514 8.09042L15.1326 7.80449C15.1982 7.73417 15.2826 7.73417 15.3717 7.79042C15.4607 7.87011 15.4467 8.00605 15.6342 8.0998C15.7936 8.16542 16.1264 8.11855 16.2061 7.98261C16.3092 7.7998 16.3373 7.73886 16.3842 7.67324C16.4592 7.5748 16.5857 7.61699 16.5857 7.6498C16.5717 7.70605 16.4967 7.75761 16.5482 7.86074C16.642 7.92636 16.6607 7.88417 16.7123 7.87011C16.8998 7.77636 17.0404 7.37324 17.0404 7.37324C17.0451 7.22324 16.9607 7.23261 16.9045 7.27011L16.7592 7.36855C16.6654 7.38261 16.492 7.44355 16.4029 7.30761C16.3139 7.14824 16.3139 6.91855 16.2482 6.75449C16.2482 6.74511 16.1264 6.49667 16.2389 6.48261C16.2951 6.49199 16.4123 6.5248 16.4311 6.42636C16.4873 6.32792 16.3092 6.05136 16.1826 5.91074C16.0748 5.79355 15.9248 5.77949 15.7795 5.90136C15.6764 5.99511 15.6904 6.09824 15.6717 6.19667C15.6539 6.26722 15.6531 6.34098 15.6694 6.41188C15.6857 6.48278 15.7186 6.54879 15.7654 6.60449C15.8686 6.80136 16.0514 7.05917 15.9904 7.4248C15.9904 7.4248 15.8826 7.59355 15.6951 7.57011C15.6154 7.55605 15.4889 7.52324 15.4232 7.01699C15.3717 6.64199 15.4326 6.10761 15.2732 5.85917C15.2123 5.70449 15.1701 5.55917 15.0295 5.81699C14.992 5.92011 14.8279 6.0748 14.9451 6.38886C15.056 6.67188 15.0884 6.97959 15.0389 7.27949C14.9686 7.38261 14.9545 7.41542 14.8654 7.51386C14.7436 7.65449 14.6076 7.61699 14.5045 7.56542C14.4107 7.50449 14.3357 7.47167 14.2889 7.26074C14.2982 6.93261 14.317 6.39355 14.2561 6.28105C14.167 6.10292 14.0217 6.16855 13.9607 6.2248C13.6819 6.53457 13.4952 6.91611 13.4217 7.32636C13.3373 7.59824 13.2482 7.51855 13.1873 7.41074C13.0373 7.27011 13.0232 6.15917 12.8404 6.34199Z" fill="white"/>
<path id="Vector_12" fill-rule="evenodd" clip-rule="evenodd" d="M13.722 8.16058C13.858 8.06683 13.797 8.00121 13.9939 8.19808C14.248 8.64771 14.3956 9.14966 14.4252 9.66527C14.4158 9.78715 14.5002 9.86215 14.5423 9.83402C14.5611 9.55277 15.2502 9.15902 15.883 9.10277C15.9767 9.07933 15.9298 8.89652 15.9439 8.80277C15.9064 8.45121 16.1408 8.13246 16.4689 8.10902C16.9189 8.17465 17.0689 8.41371 17.0783 8.77465C17.0267 9.47777 16.2955 9.59496 15.8877 9.65121C15.8267 9.67465 15.7986 9.70277 15.8877 9.73558L17.6033 9.74496L17.6923 9.79183C17.7017 9.83871 17.6642 9.80121 17.5986 9.91371C17.5042 10.0795 17.4452 10.263 17.4252 10.4528C16.9142 10.6215 16.3845 10.6871 15.8502 10.7575C15.6627 10.8512 15.5689 10.9778 15.6064 11.1184C15.672 11.2731 16.0845 11.4325 16.0845 11.4371C16.1642 11.484 16.2533 11.6012 16.0611 11.8403C15.2267 11.8028 14.5752 11.4465 14.3502 10.945C14.2845 10.8934 14.2095 10.945 14.1627 11.0106C13.8345 11.4325 13.5158 11.8075 12.958 12.0137C12.6298 12.0981 12.2877 11.9621 12.1283 11.7465C12.0205 11.62 12.0252 11.484 11.9877 11.4559C11.8048 11.5356 10.258 12.1918 10.4548 11.8825C10.8298 11.484 11.4861 11.184 12.058 10.7903C12.1002 10.6543 12.1752 10.2043 12.4002 10.059C12.4142 10.059 12.3673 10.3215 12.372 10.434C12.372 10.5278 12.3627 10.5606 12.3814 10.5371C12.4236 10.5137 13.1173 9.96527 13.1783 9.79652C13.2439 9.70277 13.1923 9.45902 13.1923 9.44965C13.0611 9.11215 12.8783 9.08402 12.8127 8.91527C12.7517 8.69496 12.7798 8.44183 12.9064 8.36683C13.0189 8.2684 13.1502 8.27777 13.2767 8.39027C13.4173 8.51683 13.5392 8.76527 13.5767 8.94808C13.5533 9.0184 13.3892 8.90121 13.3423 8.93402C13.4326 9.0377 13.4926 9.16418 13.5158 9.29965C13.6095 9.68402 13.5814 9.83402 13.4877 10.0825C13.1783 10.734 12.7845 10.9262 12.4377 11.17C12.4283 11.17 12.4236 11.334 12.5502 11.4231C12.597 11.47 12.7798 11.4934 12.9908 11.4231C13.4414 11.1728 13.8058 10.7921 14.0361 10.3309C14.0759 9.97997 14.0375 9.62458 13.9236 9.29027C13.7877 8.97621 13.6283 8.5309 13.6283 8.52152C13.6236 8.32465 13.6377 8.25902 13.722 8.16058ZM9.2314 6.35121C9.42828 6.44496 9.80328 6.40277 9.78453 6.08402L9.77515 5.93871C9.73765 5.84496 9.62515 5.8684 9.60171 5.96215C9.59234 5.99496 9.61578 6.04652 9.58765 6.06058C9.5689 6.07933 9.50796 6.06996 9.50796 5.9809C9.50796 5.95277 9.48922 5.92465 9.47515 5.9059C9.46578 5.89652 9.4564 5.89652 9.43297 5.89652C9.40484 5.89652 9.40484 5.90121 9.39078 5.92465C9.38609 5.94808 9.37671 5.97152 9.37671 5.99965C9.37671 6.03246 9.35797 6.04183 9.33922 6.04652C9.31109 6.04652 9.31578 6.04652 9.29234 6.03715C9.28297 6.02308 9.2689 6.0184 9.2689 5.99027L9.25484 5.91527C9.24546 5.90121 9.22671 5.89183 9.20796 5.88715C9.10015 5.88715 9.09078 6.01371 9.10015 6.06058C9.09078 6.06996 9.08609 6.29027 9.2314 6.35121Z" fill="white"/>
<path id="Vector_13" fill-rule="evenodd" clip-rule="evenodd" d="M15.0204 8.79815C15.2173 8.8919 15.6907 8.84034 15.5735 8.53565L15.5641 8.38565C15.5219 8.2919 15.4141 8.31534 15.3907 8.41378C15.3813 8.4419 15.4048 8.49347 15.3719 8.50753C15.3579 8.52628 15.2923 8.5169 15.2969 8.43253C15.2969 8.4044 15.2782 8.37159 15.2641 8.35284C15.2501 8.34815 15.2454 8.34347 15.2173 8.34347C15.1938 8.34347 15.1938 8.35284 15.1798 8.37628C15.1704 8.39972 15.1657 8.42315 15.1657 8.45128C15.161 8.4794 15.1469 8.48878 15.1235 8.49815C15.1001 8.49815 15.1048 8.49815 15.086 8.48409C15.0719 8.47003 15.0579 8.46534 15.0579 8.4419L15.0438 8.3669C15.0344 8.35284 15.0157 8.34347 14.9969 8.33878C14.8891 8.33878 14.8798 8.46065 14.8844 8.50753C14.8798 8.5169 14.8751 8.7419 15.0251 8.79815H15.0204ZM18.3954 7.78565C18.5923 7.8794 18.9626 7.83722 18.9485 7.52315L18.9391 7.37315C18.8969 7.2794 18.7891 7.30284 18.7657 7.39659C18.7563 7.4294 18.7798 7.48097 18.7469 7.49972C18.7329 7.51378 18.6673 7.5044 18.6719 7.41534C18.6719 7.38722 18.6532 7.35909 18.6391 7.34034C18.6251 7.33097 18.6204 7.33097 18.5923 7.33097C18.5688 7.33097 18.5688 7.34034 18.5548 7.36378L18.5407 7.43409C18.536 7.4669 18.5219 7.48097 18.4985 7.48097C18.4751 7.48097 18.4798 7.48097 18.461 7.47159C18.4469 7.45753 18.4329 7.45284 18.4329 7.4294C18.4329 7.40597 18.4282 7.36847 18.4188 7.34972C18.4094 7.33565 18.3907 7.33097 18.3719 7.32628C18.2641 7.32628 18.2548 7.44815 18.2594 7.49503C18.2548 7.5044 18.2501 7.72472 18.4001 7.78565H18.3954ZM20.1438 10.331C19.8016 10.72 19.9516 11.3622 20.0313 11.5028C20.1438 11.7278 20.2329 11.8732 20.4532 11.9857C20.6548 12.131 20.8141 12.0419 20.8985 11.9388C21.1001 11.7278 21.1048 11.1888 21.1985 11.0857C21.2641 10.8888 21.4329 10.9216 21.5126 11.0107C21.5871 11.1165 21.6871 11.2019 21.8032 11.2591C21.9907 11.4232 22.2157 11.456 22.4407 11.306C22.5907 11.2169 22.6891 11.1091 22.7782 10.8888C22.8719 10.6263 22.8251 9.40753 22.8016 8.68565L22.6048 7.67784C22.6048 7.66847 22.5813 7.19972 22.5579 7.0919C22.5579 7.04503 22.5438 7.03097 22.5907 7.03565C22.6423 7.08253 22.6469 7.08253 22.6844 7.09659C22.7313 7.10597 22.7782 7.0169 22.7454 6.9419L22.2766 6.07003C22.2391 6.03253 22.1876 5.99503 22.1266 6.0794C22.0907 6.11195 22.0621 6.15177 22.0427 6.19622C22.0233 6.24066 22.0135 6.28872 22.0141 6.33722C22.0282 6.54347 22.061 6.7544 22.0751 6.96065L22.2626 8.02003C22.3235 8.77003 22.3376 9.38878 22.3985 10.1435C22.3891 10.4622 22.2907 10.7388 22.1969 10.781C22.1969 10.781 22.0563 10.8607 21.9626 10.7716C21.8923 10.7435 21.6157 10.3075 21.6157 10.3075C21.4751 10.181 21.3813 10.2138 21.2829 10.3075C21.0016 10.5794 20.8798 11.0763 20.6876 11.4232C20.6407 11.5028 20.5001 11.5638 20.3501 11.4185C19.9657 10.8888 20.1907 10.1388 20.1438 10.331ZM18.4844 5.93878C18.6626 6.00909 18.7844 6.37003 18.7469 6.54815C18.7094 6.75909 18.6157 6.99347 18.5501 6.96534C18.4751 6.93722 18.5969 6.74972 18.5266 6.55284C18.4891 6.42159 18.2454 6.18722 18.2735 6.12159C18.2266 5.97628 18.3766 5.91065 18.4844 5.93409V5.93878Z" fill="white"/>
<path id="Vector_14" fill-rule="evenodd" clip-rule="evenodd" d="M20.7156 10.5468C20.7485 10.1155 20.6875 9.85301 20.6781 9.59988C20.6688 9.34676 20.3922 7.41551 20.336 7.22801C20.2656 6.86238 20.6031 7.18113 20.5656 6.96551C20.4485 6.70301 20.1625 6.31395 20.0735 6.08426C20.0172 5.99051 20.0406 5.89676 19.9188 6.06082C19.8138 6.34847 19.7769 6.65652 19.811 6.96082C20.1016 8.47488 20.3969 9.73113 20.35 11.1702C20.4906 11.1702 20.6453 10.8561 20.7156 10.5468ZM23.7344 6.54832C23.8985 6.62801 23.9922 7.07801 23.9735 7.20457C23.9406 7.43895 23.8563 7.69207 23.7953 7.65926C23.725 7.63113 23.8094 7.31238 23.7766 7.21395C23.7391 7.07332 23.5188 6.8202 23.5422 6.7452C23.4953 6.58582 23.636 6.5202 23.7344 6.54832ZM11.7485 9.73113C11.9031 9.79207 11.9969 10.1202 11.9828 10.2139C11.9453 10.3874 11.8656 10.5749 11.8047 10.5468C11.7438 10.528 11.8188 10.2936 11.7906 10.2186C11.7766 10.0452 11.561 9.95145 11.5656 9.87645C11.5281 9.73582 11.6594 9.71238 11.7531 9.73113H11.7485Z" fill="white"/>
<path id="Vector_15" fill-rule="evenodd" clip-rule="evenodd" d="M15.4795 10.2279C15.6764 10.2373 15.7748 10.3967 15.592 10.4623C15.4045 10.5232 15.2311 10.5748 15.2264 10.8373C15.2967 11.2123 15.1326 11.0811 15.0389 11.0342C14.9264 10.9498 14.6076 10.7529 14.5607 10.3311C14.5561 10.2326 14.6357 10.1436 14.7623 10.1436C14.9498 10.1951 15.2311 10.1998 15.4795 10.2279Z" fill="#165D31"/>
<path id="Vector_16" fill-rule="evenodd" clip-rule="evenodd" d="M7.62823 5.83106C7.85323 5.89669 7.86729 6.23419 7.85323 6.33263C7.82042 6.51075 7.74073 6.70294 7.68448 6.6795C7.61885 6.65606 7.68448 6.41231 7.65167 6.33731C7.61885 6.23419 7.42667 6.03731 7.44542 5.98106C7.40323 5.86388 7.53917 5.80763 7.62823 5.83106ZM12.1235 7.40606C11.9454 7.49981 11.8798 7.78106 11.9876 7.94981C12.0907 8.09044 12.2501 8.03888 12.2689 8.03888C12.4423 8.05763 12.5454 7.71544 12.5454 7.71544C12.5454 7.71544 12.5501 7.62169 12.3485 7.8045C12.2595 7.81856 12.2548 7.78575 12.2314 7.73888C12.2099 7.64964 12.2181 7.55583 12.2548 7.47169C12.2876 7.38731 12.222 7.34981 12.1235 7.40606ZM13.436 5.69981C13.3423 5.76075 13.1689 5.94356 13.1642 6.14981C13.1595 6.267 13.136 6.267 13.211 6.33731C13.272 6.42169 13.3235 6.417 13.436 6.35606C13.4641 6.33842 13.4881 6.31514 13.5067 6.2877C13.5253 6.26027 13.5379 6.22927 13.5439 6.19669C13.572 6.06544 13.4032 6.26231 13.3845 6.11231C13.347 5.97169 13.4548 5.91544 13.5579 5.78419C13.5579 5.69044 13.5579 5.6295 13.4314 5.69981H13.436ZM14.486 5.88731C14.4447 6.058 14.4196 6.23221 14.411 6.40763C14.3829 6.53888 14.5517 6.59513 14.622 6.42638C14.7345 6.12169 14.7345 5.99044 14.7439 5.86388C14.711 5.66231 14.5751 5.667 14.486 5.88731ZM21.1423 9.27638C21.161 9.25294 22.0798 8.60138 22.0798 8.60138C22.1735 8.56856 22.1501 8.93888 22.1079 8.93419C21.823 9.20879 21.4953 9.43519 21.1376 9.6045C21.0907 9.63731 21.0485 9.35606 21.1376 9.27638H21.1423ZM21.972 9.267C22.136 9.34669 22.2017 9.82013 22.1829 9.94669C22.1829 10.1998 22.0282 10.3967 21.9626 10.3686C21.897 10.3358 21.972 10.0545 21.9392 9.95606C21.9017 9.81544 21.7657 9.55763 21.7892 9.48263C21.7423 9.32325 21.8735 9.23888 21.9767 9.267H21.972ZM16.5345 11.3014C16.6105 11.2126 16.6989 11.1353 16.797 11.0717C16.8907 11.0248 16.9751 11.1092 16.9704 11.1045C16.9845 11.1983 16.9142 11.2779 16.9376 11.3998C16.9564 11.4467 16.9704 11.5029 17.0595 11.4842C17.2048 11.367 17.3407 11.3576 17.4814 11.3529C17.5985 11.3576 17.6032 11.5498 17.5282 11.5498C17.261 11.6061 17.1439 11.6811 16.9517 11.7514C16.8579 11.8076 16.7829 11.7373 16.7829 11.7326C16.7829 11.7279 16.7314 11.6811 16.7642 11.5592C16.7735 11.4654 16.736 11.4092 16.6517 11.4186C16.5954 11.4561 16.5392 11.4748 16.511 11.4045C16.497 11.3576 16.4923 11.3295 16.5345 11.3014ZM22.9376 11.5545C22.9751 11.6014 23.0032 11.6483 22.9329 11.7326L22.7595 11.8826C22.7314 11.9295 22.7126 12.0139 22.8064 12.0373C22.9751 12.0842 23.3689 11.8264 23.3689 11.8217C23.4345 11.7748 23.4157 11.6811 23.4064 11.6811C23.3689 11.6389 23.2845 11.667 23.2282 11.6576C23.2001 11.6576 23.111 11.6483 23.1532 11.5639C23.1847 11.5225 23.21 11.4767 23.2282 11.4279C23.2517 11.3717 23.2282 11.3342 23.1345 11.3014C23.036 11.2826 22.9939 11.292 22.886 11.3014C22.8298 11.3108 22.811 11.3389 22.797 11.4092C22.8017 11.517 22.8673 11.5123 22.9376 11.5498V11.5545Z" fill="white"/>
<path id="Vector_17" fill-rule="evenodd" clip-rule="evenodd" d="M16.5672 8.89216C16.5437 8.93903 16.4594 8.93903 16.3797 8.89216C16.3 8.84528 16.2531 8.77028 16.2812 8.7281C16.3094 8.68591 16.389 8.68591 16.4687 8.7281C16.5484 8.77028 16.5906 8.84997 16.5672 8.89216ZM12.3953 6.37966C12.3484 6.39372 12.2828 6.35154 12.2547 6.28591C12.2265 6.22029 12.2406 6.16403 12.2875 6.14997C12.3344 6.13591 12.3953 6.18278 12.4281 6.24372C12.4609 6.30466 12.4422 6.37028 12.3906 6.38435L12.3953 6.37966Z" fill="#165D31"/>
<path id="Vector_18" fill-rule="evenodd" clip-rule="evenodd" d="M20.6499 17.5779C21.0905 17.5966 21.503 17.5779 21.939 17.6013C22.0187 17.6716 21.9624 17.8357 21.9109 17.8263L21.5452 17.8123C21.5405 17.6716 21.1843 17.6951 21.1937 17.8169C21.0015 17.8404 20.828 17.8123 20.6312 17.8029C20.5749 17.7326 20.5843 17.606 20.6499 17.5779Z" fill="#165D31"/>
</g>
</g>
</g>
</svg>
