<svg width="23" height="24" viewBox="0 0 23 24" fill="none" xmlns="http://www.w3.org/2000/svg">
<g id="tabler:map-pin-filled">
<path id="Vector" d="M17.5988 4.63606C19.1823 6.28819 20.0879 8.51817 20.1243 10.8545C20.1606 13.1908 19.3247 15.4502 17.7934 17.1551L17.5988 17.3651L13.5326 21.6071C13.0167 22.1451 12.324 22.4584 11.595 22.4834C10.866 22.5085 10.1551 22.2435 9.60633 21.7421L9.46833 21.6071L5.40116 17.3641C3.78365 15.6762 2.87494 13.387 2.87494 11.0001C2.87494 8.61309 3.78365 6.32389 5.40116 4.63606C7.01867 2.94822 9.21249 2 11.5 2C13.7875 2 15.9813 2.94822 17.5988 4.63606ZM11.5 8.00006C11.1224 8.00006 10.7486 8.07765 10.3998 8.22842C10.051 8.37918 9.73403 8.60016 9.46706 8.87873C9.20009 9.15731 8.98832 9.48803 8.84384 9.85201C8.69936 10.216 8.62499 10.6061 8.62499 11.0001C8.62499 11.394 8.69936 11.7841 8.84384 12.1481C8.98832 12.5121 9.20009 12.8428 9.46706 13.1214C9.73403 13.4 10.051 13.6209 10.3998 13.7717C10.7486 13.9225 11.1224 14.0001 11.5 14.0001C12.2625 14.0001 12.9938 13.684 13.5329 13.1214C14.0721 12.5588 14.375 11.7957 14.375 11.0001C14.375 10.2044 14.0721 9.44134 13.5329 8.87873C12.9938 8.31613 12.2625 8.00006 11.5 8.00006Z" fill="white"/>
</g>
</svg>
